<svg width="48" height="45" viewBox="0 0 48 45" fill="none" xmlns="http://www.w3.org/2000/svg">
    <path d="M23.1429 6.55556H18.5714C17.359 6.55556 16.1962 7.03551 15.3389 7.88985C14.4816 8.74418 14 9.9029 14 11.1111V38.4444C14 39.6527 14.4816 40.8114 15.3389 41.6657C16.1962 42.52 17.359 43 18.5714 43H41.4286C42.641 43 43.8038 42.52 44.6611 41.6657C45.5184 40.8114 46 39.6527 46 38.4444V11.1111C46 9.9029 45.5184 8.74418 44.6611 7.88985C43.8038 7.03551 42.641 6.55556 41.4286 6.55556H36.8571M23.1429 6.55556C23.1429 7.76376 23.6245 8.92249 24.4818 9.77682C25.3391 10.6312 26.5019 11.1111 27.7143 11.1111H32.2857C33.4981 11.1111 34.6609 10.6312 35.5182 9.77682C36.3755 8.92249 36.8571 7.76376 36.8571 6.55556M23.1429 6.55556C23.1429 5.34735 23.6245 4.18862 24.4818 3.33429C25.3391 2.47996 26.5019 2 27.7143 2H32.2857C33.4981 2 34.6609 2.47996 35.5182 3.33429C36.3755 4.18862 36.8571 5.34735 36.8571 6.55556M30 22.5H36.8571M30 31.6111H36.8571M23.1429 22.5H23.1657M23.1429 31.6111H23.1657" stroke="#FCFCFC" stroke-width="3" stroke-linecap="round" stroke-linejoin="round"/>
    <path d="M10.1538 6.57692H1M5.57692 2V11.1538V2Z" stroke="#FCFCFC" stroke-width="2" stroke-linecap="round" stroke-linejoin="round"/>
</svg>
